<?xml version="1.0" encoding="utf-8"?>
<!-- Generator: Adobe Illustrator 17.0.0, SVG Export Plug-In . SVG Version: 6.00 Build 0)  -->
<!DOCTYPE svg PUBLIC "-//W3C//DTD SVG 1.1//EN" "http://www.w3.org/Graphics/SVG/1.1/DTD/svg11.dtd">
<svg version="1.1" id="Layer_1" xmlns="http://www.w3.org/2000/svg" xmlns:xlink="http://www.w3.org/1999/xlink" x="0px" y="0px"
	 width="1000px" height="1000px" viewBox="0 0 1000 1000" enable-background="new 0 0 1000 1000" xml:space="preserve">
<g>
	<g>
		<g>
			<path fill="#D4D4CD" d="M569.588,505.61H478.86v-69.904c0-32.469-11.757-42.361-39.975-42.361l-8.387,0.355h-84.001
				l-21.672,0.458v41.913h-12.49c-28.751,0-39.294,9.239-39.294,36.346v8.805c0,10.791,1.495,18.709,4.688,24.388h-17.988h-4.332
				h-1.439c-2.892,0-5.446-0.19-7.66-0.623c-2.225-0.436-4.19-0.969-5.916-1.609c-3.076-1.474-5.491-4.15-7.224-7.976
				c-1.553-3.84-2.394-8.731-2.598-14.708c-0.19-2.984-0.28-6.382-0.28-10.215c0-3.847,0-7.997,0-12.467v-118.55h-19.645h-11.549
				v25.509c0,3.725,0,7.935,0,12.627v15.353v65.061v61.037h11.549h43.058h0.844h0.862h4.332h2.457h311.994L569.588,505.61z
				 M386.535,501.861h-48.372h-13.337h-9.577c-10.559,0-12.307-4.605-12.307-13.853v-21.74c0-11.403,3.515-14.192,12.307-14.192
				h9.577h13.337h48.372V501.861z M444.594,505.61h-28.167v-69.539h-78.265v-24.022h92.319c12.099,0,14.113,5.299,14.113,15.893
				V505.61z"/>
			<path fill="#D4D4CD" d="M854.013,392.951v65.061v61.037h30.82v-60.66h0.062V339.462h-19.347h-11.535h-0.059v31.045
				c0.021,2.232,0.059,4.583,0.059,7.091V392.951z"/>
			<path fill="#D4D4CD" d="M867.206,536.825h-1.771h-2.169c-6.297,0.36-11.255,2.408-14.898,6.114
				c-3.889,4.079-5.847,9.618-5.847,16.669v2.765c0,1.297-0.014,2.505-0.041,3.629c-0.028,1.097-0.073,2.086-0.128,2.948
				c-0.042,1.733-0.308,3.145-0.744,4.259c-0.294,0.92-0.896,1.692-1.837,2.315c-0.457,0.187-0.941,0.336-1.519,0.46
				c-0.553,0.114-1.221,0.184-2.007,0.184h-5.934v9.802h5.114h23.074h29.36v-9.802h-29.52c-1.512,0-2.789-0.211-3.854-0.644
				c-1-0.55-1.706-1.329-2.093-2.315c-0.436-1.045-0.716-2.47-0.83-4.259c0-0.862-0.021-1.851-0.056-2.948
				c-0.028-1.125-0.028-2.332-0.028-3.629v-0.394c0-2.837,0.422-5.245,1.263-7.21c0.709-1.799,1.744-3.335,3.076-4.629
				c1.398-1.176,2.879-1.993,4.453-2.412c0.28-0.118,0.553-0.197,0.861-0.232c0.318-0.021,0.599-0.076,0.893-0.125h5.771h4.086
				c1.18,0,2.245,0,3.256,0c1.014,0,1.91,0.021,2.685,0.083c1.571,0.055,2.847,0.336,3.861,0.827c0.934,0.491,1.605,1.18,2,2.045
				c0.45,0.983,0.667,2.311,0.667,3.993v0.913h3.508v-7.861v-7.21v-3.335H867.206z"/>
			<polygon fill="#D4D4CD" points="104.323,784.642 209.35,784.642 209.35,768.356 136.898,768.356 136.898,680.996 
				203.987,680.996 203.987,664.727 136.898,664.727 136.898,621.293 209.35,621.293 209.35,605.011 104.323,605.011 			"/>
			<path fill="#D4D4CD" d="M598.339,661.697h-40.13c-8.93,0-13.397,2.816-15.479,10.635h-0.592v-67.321h-27.232v179.631h27.232
				v-94.464c0-11.272,3.567-14.088,11.902-14.088h39.103c9.529,0,12.21,3.131,12.21,15.334v93.218h27.226v-86.949
				C632.577,673.28,624.236,661.697,598.339,661.697z"/>
			<path fill="#D4D4CD" d="M834.355,675.467h-0.595v-13.77h-25.738v122.945h27.226V693.61c0-9.688,3.567-13.13,11.905-13.13h13.621
				c13.992,0,23.589,3.443,23.589,3.443v-22.226h-31.55C843.278,661.697,836.735,665.762,834.355,675.467z"/>
			<path fill="#D4D4CD" d="M747.966,661.586h-88.859v14.504h84.451c9.604,0,12.314,3.799,12.314,14.209v16.438h-67.356
				c-26.101,0-35.117,10.4-35.117,36.909v4.076c0,26.495,9.017,36.92,35.117,36.92h55.043c7.497,0,11.106-2.858,12.905-9.469h0.602
				v9.469h26.312V698.8C783.377,671.689,774.084,661.586,747.966,661.586z M755.872,754.981c0,11.349-2.709,15.14-12.314,15.14
				h-50.33c-8.698,0-12.307-3.474-12.307-13.57v-21.749c0-10.082,3.608-13.555,12.307-13.555h62.644V754.981z"/>
			<path fill="#D4D4CD" d="M153.256,550.422c9.044-11.722,14.351-27.378,15.894-53.96v-40.11c0,3.785-0.308,41.431-0.308,36.949
				c0-4.456,0-21.615,0-23.525v-76.819h-30.893c0,0,0,103.236,0,107.808c0,4.581-0.294,1.375-0.294,1.375
				c0,9.613-0.772,18.014-2.301,25.272c-1.737,6.819-4.038,12.134-6.937,15.988c-2.879,3.82-6.643,6.584-11.255,8.286
				c-3.546,1.308-7.844,2.041-12.839,2.201v17.603c10.48-0.076,19.818-1.813,28.011-5.252
				C140.697,562.714,147.675,557.459,153.256,550.422z"/>
		</g>
	</g>
	<path fill="#D4D4CD" d="M725.713,287.426c-66.872-25.772-140.279-4.579-183.89,47.417l-79.213-47.651
		c6.179-15.254,8.009-32.462,4.297-49.777c-9.878-46.005-55.181-75.302-101.204-65.43c-46.012,9.871-75.306,55.184-65.436,101.196
		c9.878,46.012,55.181,75.302,101.2,65.431c20.337-4.368,37.39-15.649,49.258-30.857l77.175,46.428
		c-5.152,8.397-9.625,17.374-13.289,26.902c-20.818,53.989-11.002,112.253,20.928,155.649l-85.098,63.512
		c-22.105-20.676-51.306-34.007-83.887-35.792c-73.702-4.062-136.719,52.403-140.791,126.09
		c-1.602,29.25,6.331,56.818,21.091,79.687c3.249,5.045,6.823,9.847,10.705,14.41c22.894,26.81,56.312,44.58,94.308,46.663
		c39.027,2.152,75.071-12.67,100.941-38.051c11.165-10.957,20.416-23.866,27.225-38.224c7.19-15.192,11.629-31.986,12.604-49.797
		c1.706-31.017-7.311-60.129-23.794-83.776l85.236-63.63c15.158,14.514,33.367,26.333,54.164,34.346
		c84.16,32.436,178.666-9.49,211.095-93.645C851.771,414.377,809.859,319.86,725.713,287.426z"/>
	<g>
		<path fill="#BFBFB5" d="M801.268,414.146c-3.723-17.818-16.372-30.076-27.45-42.13c-4.031-4.409-5.245-9.239-5.273-13.633
			c0-3.484,0.813-6.664,1.605-8.98c0.395-1.129,0.803-2.041,1.111-2.711c0.28-0.614,0.45-0.926,0.45-0.926l1.768-3.167l-3.356,1.296
			c-0.083,0.047-5.11,1.936-10.179,6.169c-5.055,4.226-10.234,10.895-10.234,20.353c0,7.392,3.186,16.308,11.694,26.839
			c11.577,14.322,16.106,23.314,16.012,27.106c-0.021,1.066-0.294,1.6-0.671,1.932c-0.401,0.341-1.111,0.609-2.27,0.609
			c-3.972,0.041-11.742-3.292-20.513-9.001c-8.065-5.216-14.441-7.849-19.209-7.871c-2.401,0-4.536,0.76-5.923,2.327
			c-1.412,1.578-2.01,3.804-2.01,6.48c0,4.801,1.951,11.329,5.968,19.699c2.232,4.6,3.097,7.771,3.069,9.634
			c0,1.234-0.315,1.794-0.695,2.104c-0.35,0.358-0.997,0.576-2.014,0.576c-2.446,0.028-6.376-1.474-9.528-3.05
			c-3.173-1.546-5.623-3.114-5.623-3.114c-11.452-8.924-17.918-12.315-22.163-12.4c-1.567-0.04-2.965,0.592-3.75,1.714
			c-0.799,1.095-1.031,2.443-1.045,3.84c0.062,5.712,4.041,14.161,5.56,17.214c0.349,0.706,0.568,1.149,0.568,1.149
			c8.587,14.858,12.026,27.277,12.026,37.633c-0.021,21.288-14.455,34.457-30.588,42.559c-16.033,8.082-33.657,10.826-38.844,11.058
			c-1.799,0.104-4.093,0.183-6.781,0.183c-17.652-0.014-52.122-3.868-70.467-38.072c-4.352-8.098-6.093-15.779-6.093-22.932
			c-0.017-11.949,4.934-22.634,11.231-31.578c1.609-2.268,3.301-4.423,5.006-6.474c8.494-10.096,17.489-16.941,20.143-20.304
			c2.695-3.453,11.414-10.516,19.348-20.697c7.961-10.191,15.265-23.698,15.265-40.432c0-0.393,0-0.772,0-1.144
			c-0.339-17.185-9.999-29.213-19.365-36.866c-9.428-7.652-18.704-11.028-18.766-11.085l-1.432,2.107
			c11.393,12.905,15.732,25.373,15.732,37.188c0.038,24.172-18.427,45.957-33.332,61.037c-22.492,22.847-27.142,47.616-27.17,47.768
			c-1.214,6.178-1.789,12.222-1.789,18.071c0.035,52.918,47.144,90.782,95.318,90.782c16.005,0,32.145-4.18,46.742-13.369
			c35.024-22.091,43.317-50.617,43.303-72.177c-0.035-13.177-3.048-23.785-4.851-28.974c11.898,6.537,20.392,9.226,26.592,9.234
			c4.906,0.049,8.473-1.825,10.539-4.806c2.09-2.994,2.778-6.863,2.792-10.969c-0.014-9.072-3.46-19.581-5.377-24.75
			c11.808,5.766,20.963,8.182,27.997,8.201c6.01,0,10.504-1.856,13.424-4.999c2.913-3.166,4.155-7.461,4.155-12.089
			C801.926,418.323,801.711,416.244,801.268,414.146z"/>
		<path fill="#BFBFB5" d="M698.671,382.384c1.162,1.938,3.418,4.318,6.722,7.084c-5.785-22.537-3.339-38.96-0.553-49.178
			c6.114,4.794,11.549,11.056,16.296,18.815c0.702,1.159,1.166,2.612,1.419,4.318c0.246,1.697,0.595,2.969,1.093,3.74
			c17.832-10.9,20.613-23.778,8.356-38.648c-6.615-8.205-15.531-15.815-26.714-22.842c-3.861,5.026-7.757,14.32-11.725,27.928
			c-1.142,3.325-3.138,10.951-2.574,23.138C691.557,368.948,695.581,377.343,698.671,382.384z"/>
		<path fill="#BFBFB5" d="M310.529,712.906h-35.066c-8.642,0-12.21-3.45-12.21-13.459v-9.906c0-10.013,3.567-13.452,12.21-13.452
			h67.671v-14.393h-72.286c-25.89,0-34.82,10.321-34.82,36.615v3.643c0,26.281,8.93,36.605,34.82,36.605h35.076
			c8.636,0,12.21,3.443,12.21,13.459v4.761c0,10.013-3.574,13.452-12.21,13.452h-59.07c3.249,5.045,6.823,9.847,10.705,14.41h52.97
			c25.907,0,34.837-8.777,34.837-25.042v-10.075C345.366,723.233,336.436,712.906,310.529,712.906z"/>
		<path fill="#BFBFB5" d="M445.795,661.697h-40.124c-8.937,0-13.407,2.816-15.486,10.635h-0.595v-67.321h-27.236v179.631h27.236
			v-94.464c0-11.272,3.57-14.088,11.905-14.088h39.096c9.535,0,12.217,3.131,12.217,15.334v101.83
			c11.165-10.957,20.416-23.866,27.225-38.224v-57.336C480.033,673.28,471.695,661.697,445.795,661.697z"/>
	</g>
	<g>
		<path fill="#BFBFB5" d="M431.973,309.948c-2.55,1.706-8.131,4.614-17.818,3.643c3.761-3.117,10.732-9.676,15.317-19.74
			c1.28-2.804,2.373-5.887,3.152-9.234c1.117-4.809,1.377-9.212,1.266-12.909c-1.021,4.673-3.449,13.007-9.67,21.207
			c-1.107,1.446-2.342,2.899-3.705,4.345c-4.037,4.233-8.207,7.157-11.652,9.119c-0.858-3.368-1.73-8.529-0.9-14.727
			c0.069-0.507,0.138-1.071,0.239-1.65c0.069-0.394,0.156-0.808,0.252-1.207c2.066-8.214,11.528-11.22,16.794-16.625
			c3.543-3.673,8.255-9.584,11.961-18.922c0.156-0.372,0.304-0.737,0.443-1.13c0.751,1.713,1.439,3.422,2.045,5.107
			c5.363,14.692,5.722,28.599,2.225,38.89C439.847,302.146,436.464,306.948,431.973,309.948z"/>
		<path fill="#BFBFB5" d="M354.732,219.48c41.168,28.603,45.929,57.644,45.991,69.174c0,1.01-0.021,1.875-0.062,2.604
			c0.232,3.91-0.183,22.811-29.405,32.22c0.536-0.353,18.289-11.713,23.295-26.063c-14.825,8.018-31.374,8.769-43.372,1.258
			c-11.133-6.977-15.261-19.187-16.078-21.794c-0.028-0.082-0.055-0.168-0.076-0.244c-3.335-11.189-0.114-13.268,0.301-33.152
			c0.592-27.871-17.811-39.132-17.811-39.132s57.717,0.313,87.779,28.111c30.028,27.787,1.889,50.259,1.889,50.259
			C412.117,238.111,354.732,219.48,354.732,219.48z"/>
	</g>
</g>
<g>
	<g>
		<path fill="#D4D4CD" d="M574.175,638.723v8.456h-3.083v-8.456l-7.92-11.888h3.688l6.618,10.04l6.286-10.04h1.993L574.175,638.723z
			"/>
		<path fill="#D4D4CD" d="M592.706,647.179h-8.854c-2.63,0-3.536-1.052-3.536-3.723v-7.501c0-2.671,0.907-3.716,3.536-3.716h8.854
			c2.63,0,3.536,1.045,3.536,3.716v7.501C596.242,646.127,595.336,647.179,592.706,647.179z M593.702,635.067
			c0-1.017-0.36-1.367-1.239-1.367h-8.369c-0.875,0-1.239,0.35-1.239,1.367v9.283c0,1.017,0.363,1.367,1.239,1.367h8.369
			c0.879,0,1.239-0.349,1.239-1.367V635.067z"/>
		<path fill="#D4D4CD" d="M612.355,647.179v-1.083h-0.062c-0.149,0.668-0.574,1.083-1.509,1.083h-8.342
			c-2.63,0-3.477-1.176-3.477-3.657V632.24h2.54v11.916c0,1.242,0.273,1.56,1.239,1.56h8.279c0.848,0,1.211-0.287,1.211-1.429
			V632.24h2.536v14.94H612.355z"/>
		<path fill="#D4D4CD" d="M624.087,634.143h-2.539c-0.844,0-1.207,0.353-1.207,1.336v11.701h-2.54v-14.94h2.387v1.398h0.062
			c0.242-0.986,0.907-1.398,1.872-1.398h5.532v2.256C627.654,634.495,625.509,634.143,624.087,634.143z"/>
		<path fill="#D4D4CD" d="M654.526,647.179h-13.234v-20.344h13.234c2.961,0,4.052,0.952,4.052,3.75v12.809
			C658.578,646.321,657.429,647.179,654.526,647.179z M655.495,629.949c0-1.176-0.363-1.46-1.27-1.46h-9.85v17.036h9.85
			c1.087,0,1.27-0.478,1.27-1.432V629.949z"/>
		<path fill="#D4D4CD" d="M661.605,630.392v-2.159h2.54v2.159H661.605z M661.605,647.179v-14.94h2.54v14.94H661.605z"/>
		<path fill="#D4D4CD" d="M678.922,652.836h-11.303v-1.464h11.061c0.875,0,1.239-0.349,1.239-1.366v-3.782h-0.059
			c-0.304,0.637-0.605,0.955-1.543,0.955H670.4c-2.63,0-3.536-1.052-3.536-3.723v-7.501c0-2.671,0.907-3.716,3.536-3.716h7.494
			c1.149,0,1.844,0.38,1.965,1.301h0.059v-1.301h2.54v16.877C682.458,651.788,681.551,652.836,678.922,652.836z M679.918,635.067
			c0-1.017-0.363-1.367-1.239-1.367h-8.037c-0.875,0-1.239,0.35-1.239,1.367v9.283c0,1.017,0.364,1.367,1.239,1.367h8.037
			c0.875,0,1.239-0.349,1.239-1.367V635.067z"/>
		<path fill="#D4D4CD" d="M685.485,630.392v-2.159h2.54v2.159H685.485z M685.485,647.179v-14.94h2.54v14.94H685.485z"/>
		<path fill="#D4D4CD" d="M696.128,647.179c-2.36,0-3.477-0.892-3.477-3.657V633.7h-2.204v-1.46h2.204v-2.958l2.54-0.509v3.467
			h7.072v1.46h-7.072v10.615c0,1.114,0.422,1.401,1.208,1.401h6.587v1.464H696.128z"/>
		<path fill="#D4D4CD" d="M718.281,647.179v-0.955h-0.059c-0.183,0.668-0.543,0.955-1.301,0.955h-8.279
			c-2.63,0-3.536-1.052-3.536-3.723v-2.605c0-2.668,0.906-3.719,3.536-3.719h9.518v-2c0-1.052-0.27-1.432-1.239-1.432H705.68v-1.46
			h11.452c2.63,0,3.567,1.017,3.567,3.75v11.189H718.281z M718.159,638.596h-9.276c-0.875,0-1.239,0.349-1.239,1.366v4.387
			c0,1.017,0.363,1.367,1.239,1.367h8.037c0.969,0,1.239-0.384,1.239-1.526V638.596z"/>
		<path fill="#D4D4CD" d="M723.726,647.179v-20.344h2.539v20.344H723.726z"/>
		<path fill="#D4D4CD" d="M753.409,647.179h-13.234v-20.344h13.234c2.961,0,4.051,0.952,4.051,3.75v12.809
			C757.46,646.321,756.311,647.179,753.409,647.179z M754.377,629.949c0-1.176-0.363-1.46-1.27-1.46h-9.85v17.036h9.85
			c1.086,0,1.27-0.478,1.27-1.432V629.949z"/>
		<path fill="#D4D4CD" d="M760.487,630.392v-2.159h2.539v2.159H760.487z M760.487,647.179v-14.94h2.539v14.94H760.487z"/>
		<path fill="#D4D4CD" d="M777.174,647.179H765.75v-1.464h11.182c0.875,0,1.239-0.349,1.239-1.367v-2.353
			c0-1.017-0.363-1.367-1.239-1.367h-7.646c-2.63,0-3.536-1.048-3.536-3.719v-0.955c0-2.671,0.906-3.716,3.536-3.716h11.424v1.46
			h-11.182c-0.875,0-1.239,0.35-1.239,1.367v1.588c0,1.017,0.363,1.37,1.239,1.37h7.646c2.63,0,3.536,1.045,3.536,3.716v2.892
			C780.71,646.287,779.804,647.179,777.174,647.179z"/>
		<path fill="#D4D4CD" d="M788.512,647.179c-2.36,0-3.477-0.892-3.477-3.657V633.7h-2.204v-1.46h2.204v-2.958l2.54-0.509v3.467
			h7.072v1.46h-7.072v10.615c0,1.114,0.422,1.401,1.207,1.401h6.588v1.464H788.512z"/>
		<path fill="#D4D4CD" d="M804.078,634.143h-2.539c-0.844,0-1.207,0.353-1.207,1.336v11.701h-2.54v-14.94h2.387v1.398h0.062
			c0.242-0.986,0.907-1.398,1.872-1.398h5.532v2.256C807.645,634.495,805.5,634.143,804.078,634.143z"/>
		<path fill="#D4D4CD" d="M810.399,630.392v-2.159h2.539v2.159H810.399z M810.399,647.179v-14.94h2.539v14.94H810.399z"/>
		<path fill="#D4D4CD" d="M828.016,647.179h-7.705c-1.059,0-1.813-0.287-1.903-1.305h-0.062v1.305h-2.388v-20.344h2.539v6.421h0.062
			c0.211-0.671,0.907-1.017,1.813-1.017h7.643c2.63,0,3.536,1.045,3.536,3.716v7.501
			C831.552,646.127,830.646,647.179,828.016,647.179z M829.016,635.067c0-1.017-0.363-1.367-1.239-1.367h-8.041
			c-0.875,0-1.239,0.35-1.239,1.367v9.283c0,1.017,0.364,1.367,1.239,1.367h8.041c0.875,0,1.239-0.349,1.239-1.367V635.067z"/>
		<path fill="#D4D4CD" d="M847.668,647.179v-1.083h-0.062c-0.148,0.668-0.574,1.083-1.508,1.083h-8.342
			c-2.629,0-3.477-1.176-3.477-3.657V632.24h2.539v11.916c0,1.242,0.273,1.56,1.239,1.56h8.279c0.848,0,1.211-0.287,1.211-1.429
			V632.24h2.536v14.94H847.668z"/>
		<path fill="#D4D4CD" d="M858.193,647.179c-2.359,0-3.477-0.892-3.477-3.657V633.7h-2.204v-1.46h2.204v-2.958l2.539-0.509v3.467
			h7.072v1.46h-7.072v10.615c0,1.114,0.422,1.401,1.207,1.401h6.588v1.464H858.193z"/>
		<path fill="#D4D4CD" d="M879.561,647.179h-8.854c-2.63,0-3.536-1.052-3.536-3.723v-7.501c0-2.671,0.907-3.716,3.536-3.716h8.854
			c2.629,0,3.536,1.045,3.536,3.716v7.501C883.097,646.127,882.19,647.179,879.561,647.179z M880.557,635.067
			c0-1.017-0.36-1.367-1.239-1.367h-8.369c-0.875,0-1.239,0.35-1.239,1.367v9.283c0,1.017,0.363,1.367,1.239,1.367h8.369
			c0.879,0,1.239-0.349,1.239-1.367V635.067z"/>
		<path fill="#D4D4CD" d="M892.11,634.143h-2.54c-0.844,0-1.207,0.353-1.207,1.336v11.701h-2.54v-14.94h2.387v1.398h0.062
			c0.242-0.986,0.906-1.398,1.872-1.398h5.532v2.256C895.677,634.495,893.531,634.143,892.11,634.143z"/>
	</g>
</g>
<g>
	<g>
		<path fill="#D4D4CD" d="M228.51,543.81v1.048h-1.221h-1.74h-2.169h-0.339h-0.069l0.069-0.024v-1.024
			c0.467,0,0.827-0.059,1.083-0.177c0.256-0.131,0.446-0.339,0.568-0.622c0.059-0.135,0.1-0.284,0.124-0.453
			c0.021-0.166,0.038-0.349,0.056-0.55v-1.924v-2.18c0-0.367,0-0.695,0-0.986c0-0.294-0.007-0.553-0.024-0.789
			c-0.014-0.114-0.021-0.225-0.021-0.325s-0.017-0.19-0.045-0.273c-0.031-0.166-0.062-0.283-0.09-0.353
			c-0.121-0.266-0.311-0.457-0.568-0.574c-0.27-0.131-0.616-0.201-1.038-0.201c-0.211-0.014-0.45-0.028-0.713-0.035
			c-0.263-0.01-0.564-0.014-0.893-0.014h-1.017c-0.228-0.017-0.45-0.007-0.668,0.024c-0.218,0.035-0.432,0.083-0.643,0.149
			c-0.439,0.118-0.837,0.343-1.201,0.678c-0.346,0.315-0.622,0.723-0.834,1.225c-0.228,0.533-0.339,1.183-0.339,1.951v1.702
			c0,0.349,0.004,0.675,0.01,0.976c0.007,0.298,0.01,0.567,0.01,0.799c0.031,0.484,0.107,0.868,0.229,1.152
			c0.118,0.298,0.308,0.505,0.564,0.622c0.256,0.118,0.616,0.177,1.086,0.177v1.048h-6.241h-6.058h-0.474h-0.09v-0.024
			c-1.962,0-3.467-0.54-4.522-1.626c-1.055-1.1-1.585-2.602-1.585-4.501v-0.751c0-0.349-0.004-0.675-0.01-0.976
			c-0.007-0.301-0.017-0.567-0.035-0.799h1.495h1.017h1.806v1.048h-0.225c-0.436,0-0.754,0.059-0.948,0.176
			c-0.242,0.131-0.415,0.343-0.522,0.626c-0.028,0.1-0.056,0.214-0.08,0.349c-0.021,0.131-0.049,0.277-0.076,0.425v0.952
			c0,0.782,0.111,1.432,0.339,1.951c0.104,0.266,0.229,0.498,0.37,0.699c0.145,0.201,0.298,0.384,0.464,0.55
			c0.377,0.315,0.778,0.533,1.2,0.65c0.405,0.149,0.844,0.208,1.312,0.176v0.024h6.985c0.36-0.035,0.633-0.094,0.813-0.177
			c0.211-0.118,0.377-0.325,0.498-0.622c0.118-0.301,0.187-0.685,0.201-1.152c0.017-0.232,0.028-0.502,0.035-0.799
			c0.007-0.301,0.01-0.626,0.01-0.976v-0.754c0-1.899,0.529-3.401,1.585-4.501c1.055-1.1,2.591-1.65,4.612-1.65h0.588h0.723h3.934
			h1.515v5.854h-0.024v4.778H228.51z M208.911,547.363c0.436,0,0.827,0.173,1.176,0.522c0.315,0.384,0.474,0.82,0.474,1.301
			c0,0.502-0.159,0.927-0.474,1.277c-0.332,0.367-0.727,0.55-1.176,0.55c-0.453,0-0.837-0.184-1.152-0.55
			c-0.318-0.35-0.478-0.775-0.478-1.277c0-0.481,0.159-0.917,0.478-1.301C208.073,547.536,208.457,547.363,208.911,547.363z
			 M212.187,547.363c0.439,0,0.83,0.173,1.176,0.522c0.315,0.384,0.474,0.82,0.474,1.301c0,0.502-0.159,0.927-0.474,1.277
			c-0.332,0.367-0.723,0.55-1.176,0.55c-0.45,0-0.837-0.184-1.152-0.55c-0.315-0.35-0.474-0.775-0.474-1.277
			c0-0.481,0.159-0.917,0.474-1.301C211.35,547.536,211.737,547.363,212.187,547.363z"/>
		<path fill="#D4D4CD" d="M237.554,544.858h-9.473v-1.048h9.473V544.858z"/>
		<path fill="#D4D4CD" d="M256.788,543.786v1.073h-0.973h-3.276h-2.961h-5.11h-6.262h-0.972h-0.384v-1.073h0.384h1.221
			c0.422,0,0.74-0.059,0.952-0.176c0.225-0.118,0.391-0.325,0.495-0.626c0.107-0.266,0.177-0.64,0.204-1.125
			c0.017-0.232,0.024-0.502,0.024-0.799c0-0.301,0-0.637,0-1.003v-2.65c0-0.235,0-0.457,0-0.664c0-0.208-0.007-0.394-0.024-0.56
			c-0.028-0.502-0.097-0.886-0.204-1.152c-0.103-0.301-0.27-0.508-0.495-0.626c-0.211-0.118-0.536-0.173-0.972-0.173h-0.229v-1.052
			h1.924h1.515h0.928h1.92h2.737h0.45h0.612c1.716,0.1,3.051,0.65,4,1.65c1.069,1.069,1.605,2.56,1.605,4.48v0.748
			c0,0.367,0,0.702,0,1.003c0,0.298,0.007,0.567,0.024,0.799c0.014,0.484,0.079,0.858,0.201,1.125
			c0.107,0.283,0.28,0.491,0.523,0.626c0.194,0.118,0.505,0.176,0.927,0.176H256.788z M249.601,543.786
			c0.45,0,0.806-0.059,1.062-0.176c0.27-0.135,0.46-0.343,0.564-0.626c0.104-0.266,0.173-0.64,0.204-1.125
			c0.014-0.232,0.024-0.502,0.035-0.799c0.007-0.301,0.01-0.637,0.01-1.003v-1.675c0-0.768-0.114-1.419-0.339-1.951
			c-0.197-0.484-0.484-0.9-0.858-1.252c-0.349-0.298-0.74-0.515-1.176-0.65c-0.076-0.031-0.156-0.055-0.239-0.073
			c-0.083-0.017-0.169-0.034-0.259-0.052h-1.56h-1.083c-0.332,0-0.63,0.007-0.893,0.014c-0.266,0.007-0.502,0.021-0.712,0.038
			c-0.422,0-0.768,0.066-1.042,0.197c-0.256,0.118-0.443,0.311-0.564,0.578c-0.031,0.065-0.062,0.183-0.09,0.349
			c-0.031,0.083-0.045,0.176-0.045,0.277c0,0.097-0.011,0.208-0.024,0.325c-0.014,0.184-0.021,0.391-0.021,0.623
			c0,0.235,0,0.484,0,0.751v2.502v0.401c0,0.266,0,0.519,0,0.751c0,0.232,0.007,0.45,0.021,0.65
			c0.014,0.484,0.083,0.858,0.204,1.125c0.135,0.301,0.332,0.508,0.588,0.626c0.225,0.118,0.571,0.176,1.038,0.176H249.601z"/>
		<path fill="#D4D4CD" d="M265.676,544.858h-9.473v-1.048h9.473V544.858z"/>
		<path fill="#D4D4CD" d="M283.536,543.81v1.048h-3.142h-3.121h-5.11h-6.238h-0.858v-1.048h1.107c0.422,0,0.73-0.059,0.927-0.177
			c0.239-0.131,0.412-0.339,0.519-0.622c0.104-0.27,0.173-0.651,0.204-1.152c0.014-0.232,0.021-0.495,0.021-0.789
			c0-0.291,0-0.619,0-0.986v-0.754c0-1.917,0.536-3.418,1.606-4.501c0.467-0.481,1.038-0.862,1.706-1.138
			c0.671-0.273,1.436-0.446,2.298-0.512h0.588h0.474h2.733h2.851h1.512v6.906c0,0.367,0,0.695,0,0.986
			c0,0.294,0.01,0.557,0.024,0.789c0.031,0.502,0.097,0.882,0.204,1.152c0.104,0.298,0.27,0.505,0.498,0.622
			c0.211,0.118,0.533,0.177,0.972,0.177H283.536z M277.318,543.81c0.467,0,0.813-0.059,1.041-0.177
			c0.256-0.118,0.45-0.325,0.585-0.622c0.107-0.27,0.173-0.651,0.204-1.152c0.017-0.232,0.024-0.495,0.024-0.789
			c0-0.291,0-0.619,0-0.986v-2.104c0-0.283,0-0.54,0-0.775c0-0.235-0.007-0.45-0.024-0.65v-0.049v-0.325
			c-0.014-0.1-0.024-0.201-0.035-0.301c-0.007-0.1-0.017-0.19-0.031-0.277c-0.017-0.066-0.028-0.131-0.034-0.197
			c-0.007-0.069-0.028-0.118-0.056-0.152c-0.121-0.266-0.311-0.457-0.567-0.574c-0.242-0.118-0.588-0.194-1.038-0.225
			c-0.211-0.017-0.453-0.024-0.727-0.024c-0.27,0-0.564,0-0.879,0h-1.087h-1.56c-0.211,0.031-0.377,0.066-0.498,0.097
			c-0.45,0.135-0.844,0.36-1.173,0.678c-0.363,0.298-0.65,0.716-0.861,1.249c-0.225,0.536-0.339,1.187-0.339,1.951v1.678
			c0,0.367,0.003,0.695,0.014,0.986c0.007,0.294,0.017,0.557,0.031,0.789c0.031,0.502,0.1,0.882,0.204,1.152
			c0.107,0.283,0.294,0.491,0.567,0.622c0.256,0.118,0.609,0.177,1.062,0.177H277.318z M273.18,530.825
			c-0.45,0-0.837-0.173-1.152-0.526c-0.315-0.35-0.474-0.775-0.474-1.273c0-0.519,0.159-0.952,0.474-1.301
			c0.315-0.353,0.703-0.526,1.152-0.526c0.453,0,0.837,0.173,1.152,0.526c0.332,0.349,0.498,0.782,0.498,1.301
			c0,0.498-0.166,0.924-0.498,1.273C274.017,530.652,273.633,530.825,273.18,530.825z M276.799,530.825
			c-0.453,0-0.837-0.173-1.156-0.526c-0.315-0.35-0.474-0.775-0.474-1.273c0-0.519,0.159-0.952,0.474-1.301
			c0.318-0.353,0.703-0.526,1.156-0.526c0.467,0,0.858,0.173,1.173,0.526c0.319,0.349,0.478,0.782,0.478,1.301
			c0,0.498-0.159,0.924-0.478,1.273C277.657,530.652,277.266,530.825,276.799,530.825z"/>
		<path fill="#D4D4CD" d="M292.441,544.858h-1.968v0.827c-0.059,0.751-0.187,1.436-0.384,2.052
			c-0.194,0.616-0.481,1.159-0.858,1.626c-0.858,1.1-2.155,1.651-3.889,1.651l-0.114-1.374c0.467,0,0.862-0.062,1.176-0.176
			c0.364-0.135,0.658-0.35,0.882-0.651c0.225-0.301,0.408-0.716,0.543-1.253c0.076-0.266,0.124-0.564,0.145-0.9
			c0.024-0.336,0.035-0.692,0.035-1.076v-1.55c0-0.017,0.007-0.024,0.024-0.024v-3.927v-2.104c0-0.367,0-0.699,0-1
			c0-0.301-0.01-0.567-0.024-0.799c-0.031-0.467-0.097-0.844-0.204-1.128c-0.104-0.284-0.277-0.491-0.519-0.623
			c-0.242-0.135-0.564-0.201-0.972-0.201h-0.204v-1.052h4.342v6.906c0,0.131,0,0.349,0,0.65c0,0.298,0,0.63,0,0.986
			c0,0.36,0.004,0.727,0.01,1.1c0.007,0.377,0.011,0.706,0.011,0.99h1.968V544.858z"/>
		<path fill="#D4D4CD" d="M300.987,544.858h-9.473v-1.048h9.473V544.858z"/>
		<path fill="#D4D4CD" d="M306.706,543.633c0.256,0.118,0.619,0.177,1.086,0.177v1.048h-2.148h-2.169h-3.006v-1.048h3.006v-3.726
			v-6.605v-1.228c0-0.35-0.004-0.675-0.014-0.976c-0.007-0.298-0.017-0.564-0.031-0.799c-0.017-0.433-0.076-0.817-0.184-1.152
			c-0.121-0.284-0.294-0.491-0.519-0.623c-0.211-0.118-0.536-0.176-0.972-0.176h-0.204v-1.048h1.924h0.903h1.515v12.608
			c0,0.367,0.004,0.695,0.01,0.986c0.007,0.294,0.021,0.557,0.035,0.789c0.031,0.502,0.097,0.882,0.204,1.152
			C306.246,543.294,306.436,543.502,306.706,543.633z"/>
		<path fill="#D4D4CD" d="M314.525,543.633c0.225,0.118,0.588,0.177,1.087,0.177v1.048h-4.342v-4.775v-6.629v-1.204
			c0-0.367,0-0.695,0-0.986c0-0.294-0.007-0.553-0.024-0.789c-0.028-0.502-0.097-0.882-0.201-1.152
			c-0.107-0.298-0.273-0.505-0.498-0.623c-0.211-0.118-0.536-0.176-0.972-0.176h-0.225v-1.048h1.92h0.927h1.515v12.608
			c0,0.349,0,0.675,0,0.976c0,0.298,0.007,0.567,0.021,0.799c0.031,0.484,0.107,0.868,0.228,1.152
			C314.065,543.308,314.256,543.516,314.525,543.633z"/>
		<path fill="#D4D4CD" d="M349.138,543.81v1.048h-11.169h-6.238h-1.695c-0.184,0.034-0.332,0.069-0.453,0.103
			c-0.436,0.132-0.83,0.35-1.176,0.65c-0.332,0.298-0.616,0.713-0.858,1.249c-0.225,0.533-0.339,1.183-0.339,1.951v0.851
			c0.031,0.149,0.055,0.291,0.08,0.425c0.021,0.131,0.048,0.249,0.079,0.349c0.121,0.284,0.294,0.491,0.519,0.626
			c0.256,0.114,0.581,0.173,0.972,0.173h0.204v1.052h-1.809h-1.017h-1.47c0.017-0.235,0.024-0.467,0.024-0.699
			c0-0.235,0-0.536,0-0.903v-0.751c0-1.899,0.533-3.394,1.605-4.477c0.979-1.034,2.418-1.578,4.318-1.626l0.045-0.024h0.249h0.45
			h0.523c0.377,0,0.685-0.059,0.927-0.177c0.239-0.166,0.412-0.373,0.519-0.622c0.121-0.301,0.187-0.685,0.204-1.152
			c0-0.232,0.004-0.502,0.01-0.799c0.007-0.301,0.011-0.626,0.011-0.976v-0.754c0-1.899,0.529-3.401,1.584-4.501
			c0.979-1,2.318-1.55,4.024-1.65h0.588h0.474h5.584v0.9v0.353v2.124h-0.951v-0.249c0-0.484-0.052-0.844-0.159-1.076
			c-0.104-0.253-0.291-0.433-0.564-0.55c-0.27-0.135-0.619-0.208-1.038-0.225c-0.211-0.017-0.453-0.024-0.727-0.024
			c-0.27,0-0.564,0-0.879,0h-1.111h-1.536c-0.211,0.031-0.377,0.066-0.498,0.097c-0.436,0.135-0.827,0.353-1.173,0.65
			c-0.363,0.336-0.65,0.751-0.861,1.252c-0.225,0.533-0.339,1.183-0.339,1.951v1.702c0,0.349,0.004,0.675,0.014,0.976
			c0.007,0.298,0.017,0.567,0.031,0.799c0.017,0.467,0.083,0.851,0.204,1.152c0.107,0.249,0.294,0.457,0.567,0.622
			c0.284,0.118,0.64,0.177,1.063,0.177H349.138z"/>
		<path fill="#D4D4CD" d="M356.483,543.81v1.048h-2.079h-4.183h-1.626v-1.048h1.671c0.229,0,0.425-0.017,0.599-0.052
			c0.173-0.031,0.322-0.073,0.443-0.125c0.242-0.118,0.436-0.325,0.588-0.622c0.121-0.301,0.187-0.685,0.204-1.152
			c0.014-0.232,0.021-0.502,0.021-0.799c0-0.301,0-0.626,0-0.976v-2.104c0-0.367,0-0.699,0-1c0-0.301-0.007-0.567-0.021-0.799
			c-0.017-0.467-0.083-0.851-0.204-1.152c-0.121-0.283-0.287-0.484-0.498-0.598c-0.242-0.135-0.564-0.201-0.973-0.201H350.2v-1.052
			h4.363v6.906c0,0.349,0,0.675,0,0.976c0,0.298,0.007,0.567,0.021,0.799c0.017,0.467,0.083,0.851,0.204,1.152
			c0.121,0.298,0.287,0.505,0.498,0.622c0.211,0.118,0.533,0.177,0.972,0.177H356.483z M350.718,547.363
			c0.436,0,0.83,0.173,1.177,0.522c0.315,0.384,0.474,0.82,0.474,1.301c0,0.502-0.159,0.927-0.474,1.277
			c-0.332,0.367-0.723,0.55-1.177,0.55c-0.453,0-0.837-0.184-1.152-0.55c-0.319-0.35-0.474-0.775-0.474-1.277
			c0-0.481,0.156-0.917,0.474-1.301C349.881,547.536,350.265,547.363,350.718,547.363z M353.995,547.363
			c0.453,0,0.837,0.173,1.155,0.522c0.329,0.367,0.495,0.803,0.495,1.301c0,0.502-0.166,0.927-0.495,1.277
			c-0.318,0.367-0.702,0.55-1.155,0.55c-0.45,0-0.834-0.184-1.152-0.55c-0.315-0.35-0.474-0.775-0.474-1.277
			c0-0.481,0.159-0.917,0.474-1.301C353.161,547.536,353.545,547.363,353.995,547.363z"/>
		<path fill="#D4D4CD" d="M362.994,545.685c-0.121,1.533-0.536,2.761-1.242,3.678c-0.439,0.55-0.986,0.962-1.64,1.239
			c-0.657,0.277-1.405,0.412-2.249,0.412l-0.114-1.374c0.467,0,0.858-0.062,1.177-0.176c0.36-0.135,0.654-0.35,0.882-0.651
			c0.225-0.301,0.405-0.716,0.54-1.253c0.121-0.564,0.184-1.225,0.184-1.975v-1.55v-0.024c0-0.183,0.004-0.464,0.01-0.841
			c0.007-0.374,0.01-0.761,0.01-1.162c0-0.401,0-0.779,0-1.138c0-0.356,0-0.619,0-0.785v-2.104c0-0.367-0.003-0.699-0.01-1
			c-0.007-0.301-0.01-0.567-0.01-0.799c-0.031-0.467-0.1-0.844-0.204-1.128c-0.107-0.284-0.28-0.491-0.519-0.623
			c-0.242-0.135-0.568-0.201-0.972-0.201h-0.204v-1.052h4.339v6.906c0,0.149,0,0.398,0,0.747c0,0.353,0,0.734,0,1.152
			c0,0.419,0.003,0.827,0.014,1.225c0.007,0.401,0.01,0.727,0.01,0.976V545.685z M360.8,529.901c-0.453,0-0.837-0.176-1.152-0.526
			c-0.319-0.349-0.474-0.785-0.474-1.301c0-0.502,0.156-0.924,0.474-1.276c0.332-0.367,0.716-0.55,1.152-0.55
			c0.436,0,0.82,0.184,1.152,0.55c0.332,0.353,0.499,0.775,0.499,1.276c0,0.516-0.166,0.952-0.499,1.301
			C361.638,529.725,361.254,529.901,360.8,529.901z"/>
		<path fill="#D4D4CD" d="M382.3,543.81v1.048h-1.56v0.827c-0.059,0.751-0.187,1.436-0.384,2.052
			c-0.197,0.616-0.481,1.159-0.858,1.626c-0.862,1.1-2.135,1.651-3.823,1.651l-0.09-1.374c0.211,0.014,0.415,0.007,0.613-0.028
			c0.193-0.034,0.384-0.083,0.564-0.148c0.346-0.101,0.633-0.319,0.858-0.651c0.242-0.284,0.433-0.703,0.568-1.253
			c0.059-0.266,0.104-0.56,0.135-0.886c0.031-0.325,0.045-0.688,0.045-1.09v-0.726h-1.945h-5.11h-3.366h-2.872v-0.976l0.204-0.073
			c0.436,0,0.761-0.059,0.972-0.177c0.239-0.131,0.412-0.339,0.519-0.622c0.104-0.27,0.173-0.651,0.204-1.152
			c0-0.232,0.004-0.495,0.011-0.789c0.007-0.291,0.01-0.619,0.01-0.986v-0.754c0-1.899,0.529-3.401,1.585-4.501
			c0.948-0.982,2.283-1.526,4-1.626h0.024h0.588h0.474h2.737h2.847h1.515v5.83h-0.024v4.778H382.3z M378.321,543.81v-3.726v-2.104
			c0-0.367,0-0.695,0-0.99c0-0.291-0.007-0.553-0.024-0.785c-0.028-0.218-0.052-0.419-0.066-0.602
			c-0.031-0.166-0.062-0.28-0.09-0.349c-0.121-0.266-0.311-0.457-0.568-0.574c-0.27-0.135-0.616-0.208-1.038-0.225
			c-0.211-0.017-0.453-0.024-0.723-0.024c-0.273,0-0.568,0-0.883,0h-1.107h-1.539c-0.211,0.031-0.377,0.066-0.495,0.097
			c-0.211,0.083-0.419,0.176-0.623,0.277c-0.204,0.1-0.387,0.235-0.553,0.401c-0.363,0.298-0.65,0.716-0.858,1.249
			c-0.228,0.536-0.339,1.187-0.339,1.951v1.678c0,0.367,0.004,0.695,0.01,0.986c0.007,0.294,0.017,0.557,0.035,0.789
			c0.028,0.502,0.097,0.882,0.201,1.152c0.107,0.283,0.294,0.491,0.568,0.622c0.225,0.118,0.578,0.177,1.062,0.177H378.321z"/>
		<path fill="#D4D4CD" d="M391.029,544.858h-9.473v-1.048h9.473V544.858z"/>
		<path fill="#D4D4CD" d="M401.291,543.81v1.048h-2.055h-6.241h-3.231v-1.048h3.255c0.453,0,0.806-0.059,1.062-0.177
			c0.27-0.131,0.46-0.339,0.564-0.622c0.107-0.27,0.173-0.651,0.204-1.152c0.014-0.232,0.028-0.495,0.035-0.789
			c0.007-0.291,0.01-0.619,0.01-0.986v-2.104c0-0.367-0.004-0.699-0.01-1c-0.007-0.301-0.021-0.567-0.035-0.799
			c-0.031-0.467-0.097-0.844-0.204-1.128c-0.104-0.298-0.27-0.509-0.495-0.623c-0.242-0.135-0.567-0.201-0.972-0.201h-0.204v-1.052
			h4.339v6.906c0,0.367,0,0.695,0,0.986c0,0.294,0.01,0.557,0.024,0.789c0.031,0.502,0.097,0.882,0.204,1.152
			c0.104,0.283,0.277,0.491,0.519,0.622c0.197,0.118,0.505,0.177,0.927,0.177H401.291z M393.652,529.725
			c-0.453,0-0.837-0.184-1.152-0.55c-0.318-0.349-0.478-0.775-0.478-1.277c0-0.481,0.159-0.917,0.478-1.301
			c0.315-0.35,0.699-0.526,1.152-0.526s0.837,0.176,1.152,0.526c0.332,0.367,0.498,0.802,0.498,1.301
			c0,0.502-0.166,0.928-0.498,1.277C394.489,529.541,394.105,529.725,393.652,529.725z M397.247,529.725
			c-0.453,0-0.838-0.184-1.152-0.55c-0.319-0.349-0.478-0.775-0.478-1.277c0-0.481,0.159-0.917,0.478-1.301
			c0.315-0.35,0.699-0.526,1.152-0.526c0.436,0,0.827,0.176,1.176,0.526c0.315,0.384,0.474,0.82,0.474,1.301
			c0,0.502-0.159,0.928-0.474,1.277C398.09,529.541,397.696,529.725,397.247,529.725z"/>
		<path fill="#D4D4CD" d="M409.657,544.858h-9.473v-1.048h9.473V544.858z"/>
		<path fill="#D4D4CD" d="M417.002,543.81v1.048h-0.522h-4.318h-2.892v-1.048h2.892v-3.726v-6.605v-1.228
			c0-0.35-0.004-0.675-0.01-0.976c-0.007-0.298-0.021-0.564-0.035-0.799c-0.014-0.433-0.076-0.817-0.18-1.152
			c-0.121-0.284-0.294-0.491-0.519-0.623c-0.211-0.118-0.536-0.176-0.973-0.176h-0.204v-1.048h1.92h0.907h1.512v12.608
			c0,0.367,0.004,0.695,0.014,0.986c0.007,0.294,0.017,0.557,0.031,0.789c0,0.232,0.021,0.45,0.059,0.65
			c0.038,0.201,0.086,0.367,0.145,0.502c0.107,0.283,0.294,0.491,0.568,0.622c0.225,0.118,0.578,0.177,1.062,0.177H417.002z"/>
		<path fill="#D4D4CD" d="M422.901,543.633c0.256,0.118,0.619,0.177,1.086,0.177v1.048h-2.148h-2.169h-3.007v-1.048h3.007v-3.726
			v-6.605v-1.228c0-0.35-0.004-0.675-0.014-0.976c-0.007-0.298-0.017-0.564-0.031-0.799c-0.017-0.433-0.076-0.817-0.184-1.152
			c-0.121-0.284-0.294-0.491-0.519-0.623c-0.211-0.118-0.536-0.176-0.972-0.176h-0.204v-1.048h1.924h0.903h1.516v12.608
			c0,0.367,0.004,0.695,0.01,0.986c0.007,0.294,0.021,0.557,0.035,0.789c0.031,0.502,0.097,0.882,0.204,1.152
			C422.441,543.294,422.631,543.502,422.901,543.633z"/>
	</g>
</g>
<rect x="104.323" y="168.78" fill="none" width="791.353" height="662.439"/>
</svg>
