<?xml version="1.0" encoding="utf-8"?>
<!-- Generator: Adobe Illustrator 17.0.0, SVG Export Plug-In . SVG Version: 6.00 Build 0)  -->
<!DOCTYPE svg PUBLIC "-//W3C//DTD SVG 1.1//EN" "http://www.w3.org/Graphics/SVG/1.1/DTD/svg11.dtd">
<svg version="1.1" id="Layer_1" xmlns="http://www.w3.org/2000/svg" xmlns:xlink="http://www.w3.org/1999/xlink" x="0px" y="0px"
	 width="949.62px" height="793.73px" viewBox="0 0 949.62 793.73" enable-background="new 0 0 949.62 793.73" xml:space="preserve">
<g>
	<g>
		<g>
			<path fill="#D4D4CD" d="M558.118,404.573H449.245v-83.885c0-38.963-14.108-50.833-47.97-50.833l-10.064,0.426H290.41
				l-26.007,0.55v50.295h-14.988c-34.502,0-47.152,11.087-47.152,43.615v10.566c0,12.949,1.794,22.451,5.626,29.266h-21.585h-5.198
				h-1.727c-3.471,0-6.535-0.228-9.192-0.747c-2.669-0.523-5.028-1.162-7.099-1.931c-3.691-1.769-6.589-4.98-8.669-9.572
				c-1.864-4.609-2.873-10.477-3.118-17.649c-0.228-3.581-0.336-7.658-0.336-12.258c0-4.617,0-9.597,0-14.961v-142.26H127.39
				h-13.859v30.611c0,4.47,0,9.522,0,15.152v18.424v78.073v73.244h13.859h51.669h1.013h1.034h5.198h2.948h374.393L558.118,404.573z
				 M338.455,400.075h-58.046h-16.005h-11.492c-12.671,0-14.768-5.526-14.768-16.624v-26.088c0-13.684,4.218-17.03,14.768-17.03
				h11.492h16.005h58.046V400.075z M408.126,404.573h-33.8v-83.447h-93.918v-28.826h110.782c14.519,0,16.935,6.358,16.935,19.072
				V404.573z"/>
			<path fill="#D4D4CD" d="M899.429,269.383v78.073v73.244h36.984v-72.791h0.074V205.196h-23.217h-13.842h-0.071v37.254
				c0.025,2.678,0.071,5.499,0.071,8.509V269.383z"/>
			<path fill="#D4D4CD" d="M915.26,442.031h-2.126h-2.603c-7.556,0.432-13.506,2.89-17.878,7.336
				c-4.667,4.895-7.017,11.542-7.017,20.003v3.317c0,1.557-0.017,3.006-0.05,4.355c-0.033,1.316-0.087,2.504-0.154,3.538
				c-0.05,2.08-0.37,3.774-0.892,5.111c-0.353,1.105-1.075,2.03-2.205,2.777c-0.548,0.224-1.129,0.403-1.823,0.552
				c-0.664,0.137-1.465,0.22-2.408,0.22h-7.12v11.762h6.137h27.688h35.232v-11.762h-35.423c-1.814,0-3.346-0.253-4.625-0.772
				c-1.2-0.66-2.047-1.594-2.512-2.777c-0.523-1.254-0.859-2.965-0.996-5.111c0-1.034-0.025-2.221-0.067-3.538
				c-0.033-1.349-0.033-2.798-0.033-4.355v-0.473c0-3.405,0.507-6.294,1.516-8.653c0.851-2.159,2.093-4.002,3.691-5.555
				c1.678-1.411,3.454-2.391,5.344-2.894c0.336-0.141,0.664-0.236,1.034-0.278c0.382-0.025,0.719-0.091,1.071-0.15h6.925h4.903
				c1.416,0,2.695,0,3.907,0c1.216,0,2.292,0.025,3.222,0.1c1.885,0.066,3.417,0.403,4.633,0.992c1.121,0.589,1.926,1.416,2.4,2.454
				c0.54,1.179,0.801,2.774,0.801,4.791v1.096h4.21v-9.433v-8.652v-4.002H915.26z"/>
			<polygon fill="#D4D4CD" points="-0.199,739.412 125.833,739.412 125.833,719.869 38.89,719.869 38.89,615.036 119.397,615.036 
				119.397,595.515 38.89,595.515 38.89,543.393 125.833,543.393 125.833,523.855 -0.199,523.855 			"/>
			<path fill="#D4D4CD" d="M592.619,591.878h-48.156c-10.716,0-16.076,3.379-18.575,12.762h-0.71v-80.785h-32.679v215.557h32.679
				V626.055c0-13.526,4.281-16.906,14.282-16.906h46.924c11.434,0,14.652,3.757,14.652,18.401v111.862h32.671V635.073
				C633.706,605.778,623.696,591.878,592.619,591.878z"/>
			<path fill="#D4D4CD" d="M875.838,608.402h-0.714v-16.524h-30.885v147.534h32.671V630.174c0-11.625,4.28-15.756,14.286-15.756
				h16.346c16.79,0,28.307,4.131,28.307,4.131v-26.671h-37.86C886.546,591.878,878.695,596.756,875.838,608.402z"/>
			<path fill="#D4D4CD" d="M772.172,591.745h-106.63v17.405h101.341c11.525,0,14.776,4.558,14.776,17.051v19.725h-80.828
				c-31.321,0-42.141,12.48-42.141,44.291v4.891c0,31.794,10.82,44.304,42.141,44.304h66.051c8.997,0,13.327-3.429,15.486-11.363
				h0.722v11.363h31.574v-103.01C814.666,603.868,803.514,591.745,772.172,591.745z M781.659,703.818
				c0,13.618-3.251,18.169-14.776,18.169h-60.396c-10.438,0-14.768-4.169-14.768-16.283v-26.098c0-12.098,4.33-16.266,14.768-16.266
				h75.173V703.818z"/>
			<path fill="#D4D4CD" d="M58.52,458.348c10.853-14.066,17.222-32.853,19.073-64.752v-48.132c0,4.542-0.369,49.718-0.369,44.339
				c0-5.347,0-25.938,0-28.23v-92.182H40.152c0,0,0,123.883,0,129.37c0,5.497-0.353,1.65-0.353,1.65
				c0,11.536-0.926,21.616-2.761,30.327c-2.084,8.183-4.845,14.56-8.324,19.185c-3.454,4.583-7.971,7.901-13.506,9.944
				c-4.256,1.569-9.412,2.45-15.407,2.641v21.124c12.576-0.091,23.781-2.175,33.613-6.302
				C43.449,473.099,51.823,466.792,58.52,458.348z"/>
		</g>
	</g>
	<path fill="#D4D4CD" d="M745.468,142.753c-80.246-30.927-168.335-5.495-220.668,56.9l-95.055-57.181
		c7.415-18.305,9.611-38.954,5.157-59.732C423.048,27.534,368.684-7.621,313.457,4.224c-55.215,11.845-90.368,66.221-78.523,121.436
		c11.853,55.215,66.217,90.362,121.44,78.517c24.404-5.242,44.868-18.779,59.109-37.028l92.61,55.713
		c-6.182,10.076-11.55,20.848-15.947,32.282c-24.981,64.786-13.203,134.703,25.114,186.779l-102.117,76.214
		c-26.526-24.811-61.567-40.808-100.664-42.95c-88.442-4.874-164.063,62.883-168.949,151.308
		c-1.922,35.099,7.598,68.181,25.309,95.624c3.899,6.054,8.187,11.816,12.846,17.292c27.472,32.172,67.575,53.496,113.17,55.995
		c46.832,2.582,90.085-15.204,121.129-45.661c13.398-13.149,24.5-28.639,32.67-45.869c8.627-18.231,13.954-38.383,15.125-59.757
		c2.047-37.221-8.773-72.154-28.552-100.532l102.284-76.356c18.189,17.417,40.04,31.599,64.996,41.215
		c100.993,38.923,214.399-11.388,253.314-112.375C896.738,295.095,846.443,181.674,745.468,142.753z"/>
	<g>
		<path fill="#BFBFB5" d="M836.135,294.816c-4.467-21.382-19.646-36.091-32.94-50.556c-4.837-5.291-6.294-11.087-6.327-16.36
			c0-4.181,0.976-7.997,1.926-10.776c0.474-1.355,0.963-2.45,1.333-3.253c0.336-0.737,0.54-1.111,0.54-1.111l2.121-3.801
			l-4.027,1.555c-0.099,0.056-6.132,2.323-12.214,7.403c-6.066,5.072-12.281,13.074-12.281,24.423
			c0,8.87,3.824,19.569,14.033,32.207c13.892,17.186,19.327,27.977,19.214,32.527c-0.025,1.279-0.353,1.92-0.805,2.319
			c-0.482,0.409-1.333,0.731-2.724,0.731c-4.766,0.05-14.091-3.95-24.616-10.801c-9.678-6.259-17.33-9.419-23.051-9.445
			c-2.881,0-5.443,0.911-7.108,2.792c-1.694,1.893-2.412,4.565-2.412,7.776c0,5.761,2.342,13.595,7.162,23.638
			c2.678,5.52,3.716,9.325,3.683,11.561c0,1.48-0.378,2.153-0.835,2.525c-0.42,0.43-1.196,0.691-2.417,0.691
			c-2.935,0.033-7.652-1.769-11.434-3.66c-3.808-1.856-6.747-3.737-6.747-3.737c-13.742-10.709-21.502-14.778-26.596-14.88
			c-1.881-0.048-3.558,0.71-4.5,2.057c-0.959,1.314-1.237,2.931-1.254,4.609c0.074,6.855,4.849,16.993,6.672,20.657
			c0.419,0.847,0.681,1.378,0.681,1.378c10.305,17.83,14.432,32.733,14.432,45.159c-0.025,25.546-17.346,41.348-36.706,51.071
			c-19.239,9.698-40.389,12.991-46.612,13.269c-2.159,0.125-4.911,0.22-8.137,0.22c-21.183-0.017-62.547-4.642-84.56-45.686
			c-5.223-9.717-7.311-18.934-7.311-27.518c-0.021-14.338,5.921-27.161,13.477-37.893c1.931-2.721,3.961-5.308,6.008-7.768
			c10.193-12.115,20.987-20.329,24.172-24.365c3.234-4.143,13.697-12.62,23.217-24.836c9.553-12.229,18.318-28.438,18.318-48.518
			c0-0.471,0-0.926,0-1.372c-0.407-20.622-11.999-35.056-23.238-44.239c-11.314-9.182-22.445-13.234-22.519-13.302l-1.719,2.528
			c13.672,15.486,18.878,30.447,18.878,44.626c0.046,29.006-22.113,55.148-39.998,73.244
			c-26.991,27.416-32.571,57.139-32.604,57.322c-1.457,7.413-2.147,14.666-2.147,21.685
			c0.042,63.502,56.572,108.939,114.382,108.939c19.206,0,38.574-5.015,56.091-16.042c42.029-26.509,51.981-60.741,51.964-86.613
			c-0.042-15.812-3.658-28.542-5.821-34.769c14.278,7.845,24.47,11.071,31.91,11.081c5.887,0.058,10.168-2.19,12.646-5.767
			c2.508-3.593,3.334-8.235,3.351-13.163c-0.017-10.886-4.152-23.497-6.452-29.7c14.17,6.919,25.156,9.819,33.597,9.842
			c7.212,0,12.605-2.227,16.109-5.999c3.496-3.799,4.986-8.954,4.986-14.506C836.924,299.83,836.666,297.335,836.135,294.816z"/>
		<path fill="#BFBFB5" d="M713.018,256.703c1.395,2.325,4.102,5.181,8.067,8.501c-6.942-27.045-4.007-46.751-0.664-59.014
			c7.336,5.753,13.858,13.267,19.555,22.578c0.843,1.391,1.399,3.135,1.702,5.181c0.295,2.036,0.714,3.562,1.312,4.488
			c21.398-13.08,24.736-28.533,10.027-46.378c-7.938-9.846-18.638-18.978-32.056-27.41c-4.633,6.031-9.308,17.184-14.07,33.513
			c-1.37,3.99-3.766,13.141-3.089,27.765C704.481,240.58,709.31,250.654,713.018,256.703z"/>
		<path fill="#BFBFB5" d="M247.248,653.329h-42.079c-10.371,0-14.652-4.14-14.652-16.151v-11.887
			c0-12.015,4.281-16.142,14.652-16.142h81.205v-17.271h-86.743c-31.068,0-41.784,12.385-41.784,43.938v4.372
			c0,31.537,10.716,43.926,41.784,43.926h42.091c10.363,0,14.652,4.131,14.652,16.15v5.713c0,12.015-4.289,16.142-14.652,16.142
			h-70.884c3.899,6.054,8.187,11.816,12.846,17.292h63.564c31.089,0,41.804-10.533,41.804-30.05v-12.09
			C289.052,665.722,278.337,653.329,247.248,653.329z"/>
		<path fill="#BFBFB5" d="M409.567,591.878h-48.148c-10.724,0-16.088,3.379-18.583,12.762h-0.714v-80.785h-32.683v215.557h32.683
			V626.055c0-13.526,4.285-16.906,14.287-16.906h46.915c11.442,0,14.66,3.757,14.66,18.401v122.196
			c13.398-13.149,24.5-28.639,32.67-45.869v-68.804C450.653,605.778,440.647,591.878,409.567,591.878z"/>
	</g>
	<g>
		<path fill="#BFBFB5" d="M392.98,169.779c-3.06,2.047-9.757,5.536-21.382,4.372c4.513-3.741,12.879-11.611,18.38-23.688
			c1.536-3.365,2.848-7.064,3.782-11.081c1.341-5.771,1.653-11.054,1.52-15.491c-1.225,5.607-4.139,15.609-11.604,25.449
			c-1.329,1.735-2.811,3.479-4.447,5.214c-4.845,5.08-9.848,8.588-13.983,10.942c-1.03-4.042-2.076-10.234-1.079-17.672
			c0.083-0.608,0.166-1.285,0.287-1.98c0.083-0.473,0.187-0.969,0.303-1.449c2.479-9.857,13.834-13.464,20.153-19.949
			c4.251-4.407,9.906-11.501,14.353-22.706c0.187-0.446,0.365-0.884,0.531-1.356c0.901,2.055,1.727,4.106,2.453,6.128
			c6.435,17.631,6.867,34.319,2.669,46.668C402.43,160.417,398.369,166.179,392.98,169.779z"/>
		<path fill="#BFBFB5" d="M300.292,61.218c49.402,34.323,55.115,69.173,55.19,83.009c0,1.213-0.025,2.25-0.075,3.124
			c0.278,4.691-0.22,27.373-35.286,38.663c0.644-0.423,21.946-14.056,27.954-31.275c-17.791,9.622-37.649,10.523-52.047,1.509
			c-13.36-8.372-18.313-23.024-19.293-26.152c-0.033-0.098-0.066-0.202-0.091-0.293c-4.002-13.427-0.137-15.922,0.361-39.782
			c0.71-33.445-21.373-46.959-21.373-46.959s69.26,0.376,105.335,33.733c36.034,33.345,2.267,60.311,2.267,60.311
			C369.153,83.575,300.292,61.218,300.292,61.218z"/>
	</g>
</g>
<g>
	<g>
		<path fill="#D4D4CD" d="M563.623,564.31v10.147h-3.699V564.31l-9.504-14.266h4.426l7.942,12.049l7.544-12.049h2.391
			L563.623,564.31z"/>
		<path fill="#D4D4CD" d="M585.86,574.457h-10.624c-3.155,0-4.243-1.262-4.243-4.467v-9.001c0-3.205,1.088-4.459,4.243-4.459h10.624
			c3.155,0,4.243,1.254,4.243,4.459v9.001C590.103,573.194,589.016,574.457,585.86,574.457z M587.056,559.921
			c0-1.221-0.432-1.64-1.486-1.64h-10.043c-1.051,0-1.486,0.42-1.486,1.64v11.139c0,1.221,0.436,1.64,1.486,1.64h10.043
			c1.055,0,1.486-0.419,1.486-1.64V559.921z"/>
		<path fill="#D4D4CD" d="M609.438,574.457v-1.3h-0.075c-0.179,0.801-0.689,1.3-1.81,1.3h-10.01c-3.155,0-4.172-1.411-4.172-4.388
			v-13.539h3.047v14.299c0,1.491,0.328,1.872,1.486,1.872h9.935c1.017,0,1.453-0.344,1.453-1.715v-14.457h3.043v17.927H609.438z"/>
		<path fill="#D4D4CD" d="M623.517,558.813h-3.047c-1.013,0-1.449,0.423-1.449,1.603v14.041h-3.047v-17.927h2.865v1.677h0.075
			c0.291-1.183,1.088-1.677,2.246-1.677h6.639v2.707C627.797,559.236,625.224,558.813,623.517,558.813z"/>
		<path fill="#D4D4CD" d="M660.045,574.457h-15.881v-24.413h15.881c3.554,0,4.862,1.142,4.862,4.501v15.37
			C664.907,573.427,663.528,574.457,660.045,574.457z M661.207,553.781c0-1.411-0.436-1.752-1.524-1.752h-11.82v20.443h11.82
			c1.304,0,1.524-0.573,1.524-1.719V553.781z"/>
		<path fill="#D4D4CD" d="M668.539,554.312v-2.59h3.047v2.59H668.539z M668.539,574.457v-17.927h3.047v17.927H668.539z"/>
		<path fill="#D4D4CD" d="M689.319,581.245h-13.564v-1.756h13.273c1.051,0,1.486-0.419,1.486-1.64v-4.538h-0.071
			c-0.365,0.764-0.727,1.146-1.852,1.146h-9.499c-3.155,0-4.243-1.262-4.243-4.467v-9.001c0-3.205,1.088-4.459,4.243-4.459h8.993
			c1.378,0,2.213,0.457,2.358,1.561h0.071v-1.561h3.047v20.253C693.562,579.987,692.474,581.245,689.319,581.245z M690.515,559.921
			c0-1.221-0.436-1.64-1.486-1.64h-9.645c-1.05,0-1.486,0.42-1.486,1.64v11.139c0,1.221,0.436,1.64,1.486,1.64h9.645
			c1.051,0,1.486-0.419,1.486-1.64V559.921z"/>
		<path fill="#D4D4CD" d="M697.195,554.312v-2.59h3.047v2.59H697.195z M697.195,574.457v-17.927h3.047v17.927H697.195z"/>
		<path fill="#D4D4CD" d="M709.966,574.457c-2.831,0-4.173-1.071-4.173-4.388v-11.787h-2.644v-1.752h2.644v-3.549l3.047-0.611v4.16
			h8.486v1.752h-8.486v12.738c0,1.337,0.507,1.681,1.449,1.681h7.905v1.756H709.966z"/>
		<path fill="#D4D4CD" d="M736.55,574.457v-1.146h-0.071c-0.22,0.801-0.652,1.146-1.561,1.146h-9.935
			c-3.155,0-4.243-1.262-4.243-4.467v-3.126c0-3.201,1.088-4.463,4.243-4.463h11.422V560c0-1.262-0.324-1.719-1.486-1.719h-13.489
			v-1.752h13.742c3.155,0,4.28,1.221,4.28,4.501v13.427H736.55z M736.404,564.156h-11.131c-1.051,0-1.486,0.419-1.486,1.64v5.265
			c0,1.221,0.436,1.64,1.486,1.64h9.644c1.163,0,1.486-0.461,1.486-1.831V564.156z"/>
		<path fill="#D4D4CD" d="M743.085,574.457v-24.413h3.047v24.413H743.085z"/>
		<path fill="#D4D4CD" d="M778.703,574.457h-15.881v-24.413h15.881c3.554,0,4.862,1.142,4.862,4.501v15.37
			C783.565,573.427,782.186,574.457,778.703,574.457z M779.866,553.781c0-1.411-0.436-1.752-1.524-1.752h-11.82v20.443h11.82
			c1.303,0,1.524-0.573,1.524-1.719V553.781z"/>
		<path fill="#D4D4CD" d="M787.198,554.312v-2.59h3.047v2.59H787.198z M787.198,574.457v-17.927h3.047v17.927H787.198z"/>
		<path fill="#D4D4CD" d="M807.222,574.457h-13.709V572.7h13.418c1.051,0,1.486-0.419,1.486-1.64v-2.823
			c0-1.221-0.436-1.64-1.486-1.64h-9.175c-3.155,0-4.243-1.258-4.243-4.463v-1.146c0-3.205,1.087-4.459,4.243-4.459h13.709v1.752
			h-13.418c-1.051,0-1.486,0.42-1.486,1.64v1.906c0,1.221,0.436,1.644,1.486,1.644h9.175c3.155,0,4.243,1.254,4.243,4.459v3.471
			C811.465,573.386,810.377,574.457,807.222,574.457z"/>
		<path fill="#D4D4CD" d="M820.827,574.457c-2.832,0-4.173-1.071-4.173-4.388v-11.787h-2.645v-1.752h2.645v-3.549l3.047-0.611v4.16
			h8.486v1.752h-8.486v12.738c0,1.337,0.507,1.681,1.449,1.681h7.905v1.756H820.827z"/>
		<path fill="#D4D4CD" d="M839.506,558.813h-3.047c-1.013,0-1.449,0.423-1.449,1.603v14.041h-3.047v-17.927h2.865v1.677h0.075
			c0.291-1.183,1.088-1.677,2.246-1.677h6.639v2.707C843.786,559.236,841.213,558.813,839.506,558.813z"/>
		<path fill="#D4D4CD" d="M847.091,554.312v-2.59h3.047v2.59H847.091z M847.091,574.457v-17.927h3.047v17.927H847.091z"/>
		<path fill="#D4D4CD" d="M868.232,574.457h-9.246c-1.27,0-2.175-0.344-2.283-1.565h-0.074v1.565h-2.865v-24.413h3.047v7.706h0.075
			c0.253-0.805,1.088-1.221,2.175-1.221h9.171c3.155,0,4.243,1.254,4.243,4.459v9.001
			C872.475,573.194,871.388,574.457,868.232,574.457z M869.432,559.921c0-1.221-0.436-1.64-1.486-1.64h-9.649
			c-1.05,0-1.486,0.42-1.486,1.64v11.139c0,1.221,0.436,1.64,1.486,1.64h9.649c1.05,0,1.486-0.419,1.486-1.64V559.921z"/>
		<path fill="#D4D4CD" d="M891.815,574.457v-1.3h-0.075c-0.178,0.801-0.689,1.3-1.81,1.3h-10.01c-3.155,0-4.173-1.411-4.173-4.388
			v-13.539h3.047v14.299c0,1.491,0.328,1.872,1.486,1.872h9.935c1.017,0,1.453-0.344,1.453-1.715v-14.457h3.044v17.927H891.815z"/>
		<path fill="#D4D4CD" d="M904.444,574.457c-2.831,0-4.172-1.071-4.172-4.388v-11.787h-2.645v-1.752h2.645v-3.549l3.047-0.611v4.16
			h8.486v1.752h-8.486v12.738c0,1.337,0.506,1.681,1.449,1.681h7.905v1.756H904.444z"/>
		<path fill="#D4D4CD" d="M930.086,574.457h-10.624c-3.155,0-4.243-1.262-4.243-4.467v-9.001c0-3.205,1.088-4.459,4.243-4.459
			h10.624c3.155,0,4.243,1.254,4.243,4.459v9.001C934.329,573.194,933.241,574.457,930.086,574.457z M931.281,559.921
			c0-1.221-0.432-1.64-1.486-1.64h-10.043c-1.051,0-1.486,0.42-1.486,1.64v11.139c0,1.221,0.436,1.64,1.486,1.64h10.043
			c1.055,0,1.486-0.419,1.486-1.64V559.921z"/>
		<path fill="#D4D4CD" d="M945.145,558.813h-3.047c-1.013,0-1.449,0.423-1.449,1.603v14.041h-3.047v-17.927h2.865v1.677h0.075
			c0.29-1.183,1.088-1.677,2.246-1.677h6.639v2.707C949.425,559.236,946.851,558.813,945.145,558.813z"/>
	</g>
</g>
<g>
	<g>
		<path fill="#D4D4CD" d="M148.825,450.414v1.258h-1.465h-2.088h-2.603h-0.407h-0.083l0.083-0.029v-1.229
			c0.56,0,0.992-0.071,1.299-0.212c0.307-0.158,0.536-0.407,0.681-0.747c0.071-0.162,0.12-0.341,0.149-0.544
			c0.025-0.199,0.046-0.419,0.067-0.66v-2.309v-2.616c0-0.44,0-0.835,0-1.184c0-0.353-0.008-0.664-0.029-0.946
			c-0.017-0.137-0.025-0.27-0.025-0.39c0-0.12-0.021-0.228-0.054-0.328c-0.037-0.199-0.075-0.34-0.108-0.423
			c-0.145-0.32-0.374-0.548-0.681-0.689c-0.324-0.158-0.739-0.241-1.245-0.241c-0.253-0.017-0.54-0.033-0.855-0.042
			c-0.315-0.012-0.677-0.017-1.071-0.017h-1.221c-0.274-0.021-0.54-0.008-0.801,0.029c-0.261,0.042-0.519,0.1-0.772,0.179
			c-0.527,0.141-1.005,0.411-1.441,0.814c-0.415,0.378-0.747,0.868-1,1.47c-0.274,0.639-0.407,1.42-0.407,2.342v2.043
			c0,0.419,0.004,0.809,0.012,1.171c0.009,0.357,0.012,0.681,0.012,0.959c0.037,0.581,0.129,1.042,0.274,1.383
			c0.141,0.357,0.369,0.606,0.677,0.747c0.307,0.142,0.739,0.212,1.303,0.212v1.258h-7.49h-7.27h-0.569h-0.108v-0.029
			c-2.354,0-4.16-0.647-5.427-1.951c-1.267-1.32-1.902-3.122-1.902-5.401v-0.901c0-0.419-0.004-0.809-0.012-1.171
			c-0.008-0.361-0.021-0.681-0.042-0.959h1.794h1.221h2.167v1.258h-0.27c-0.523,0-0.905,0.071-1.138,0.212
			c-0.29,0.158-0.498,0.411-0.627,0.752c-0.034,0.12-0.067,0.257-0.096,0.419c-0.025,0.158-0.058,0.332-0.091,0.511v1.142
			c0,0.938,0.133,1.719,0.407,2.342c0.125,0.32,0.274,0.598,0.444,0.838c0.174,0.241,0.357,0.461,0.557,0.66
			c0.452,0.378,0.934,0.639,1.44,0.781c0.486,0.179,1.013,0.249,1.574,0.212v0.029h8.382c0.432-0.042,0.76-0.112,0.976-0.212
			c0.253-0.141,0.453-0.39,0.598-0.747c0.141-0.361,0.224-0.822,0.241-1.383c0.021-0.278,0.033-0.602,0.042-0.959
			c0.008-0.361,0.012-0.752,0.012-1.171v-0.905c0-2.279,0.635-4.081,1.902-5.401c1.266-1.32,3.109-1.98,5.534-1.98h0.706h0.868
			h4.721h1.818v7.025h-0.029v5.734H148.825z M125.306,454.677c0.523,0,0.992,0.207,1.411,0.627c0.378,0.461,0.569,0.984,0.569,1.561
			c0,0.602-0.191,1.113-0.569,1.532c-0.398,0.44-0.872,0.66-1.411,0.66c-0.544,0-1.005-0.22-1.383-0.66
			c-0.382-0.42-0.573-0.93-0.573-1.532c0-0.577,0.191-1.1,0.573-1.561C124.301,454.885,124.761,454.677,125.306,454.677z
			 M129.237,454.677c0.527,0,0.997,0.207,1.411,0.627c0.378,0.461,0.569,0.984,0.569,1.561c0,0.602-0.191,1.113-0.569,1.532
			c-0.398,0.44-0.868,0.66-1.411,0.66c-0.54,0-1.005-0.22-1.383-0.66c-0.378-0.42-0.569-0.93-0.569-1.532
			c0-0.577,0.191-1.1,0.569-1.561C128.233,454.885,128.697,454.677,129.237,454.677z"/>
		<path fill="#D4D4CD" d="M159.678,451.672h-11.368v-1.258h11.368V451.672z"/>
		<path fill="#D4D4CD" d="M182.758,450.384v1.287h-1.167h-3.932h-3.554h-6.132h-7.515h-1.167h-0.461v-1.287h0.461h1.465
			c0.507,0,0.889-0.071,1.142-0.212c0.27-0.141,0.469-0.39,0.594-0.751c0.129-0.32,0.212-0.768,0.245-1.349
			c0.02-0.278,0.029-0.602,0.029-0.959c0-0.361,0-0.764,0-1.204v-3.181c0-0.282,0-0.548,0-0.797c0-0.249-0.008-0.473-0.029-0.673
			c-0.033-0.602-0.116-1.063-0.245-1.383c-0.124-0.361-0.324-0.61-0.594-0.751c-0.253-0.141-0.644-0.207-1.167-0.207h-0.274v-1.262
			h2.309h1.818h1.113h2.304h3.284h0.54h0.735c2.059,0.12,3.662,0.781,4.799,1.98c1.283,1.283,1.926,3.073,1.926,5.376v0.897
			c0,0.44,0,0.843,0,1.204c0,0.357,0.008,0.681,0.029,0.959c0.017,0.581,0.095,1.03,0.241,1.349c0.129,0.34,0.336,0.589,0.627,0.751
			c0.233,0.141,0.606,0.212,1.113,0.212H182.758z M174.135,450.384c0.54,0,0.968-0.071,1.275-0.212
			c0.324-0.162,0.552-0.411,0.677-0.751c0.125-0.32,0.207-0.768,0.245-1.349c0.017-0.278,0.029-0.602,0.042-0.959
			c0.009-0.361,0.012-0.764,0.012-1.204v-2.01c0-0.922-0.137-1.702-0.407-2.342c-0.236-0.581-0.581-1.079-1.03-1.503
			c-0.419-0.357-0.888-0.619-1.411-0.781c-0.091-0.037-0.187-0.066-0.287-0.087c-0.099-0.021-0.203-0.041-0.311-0.062h-1.872h-1.3
			c-0.399,0-0.755,0.008-1.071,0.017c-0.32,0.008-0.602,0.025-0.855,0.046c-0.507,0-0.922,0.079-1.25,0.237
			c-0.307,0.141-0.531,0.374-0.677,0.693c-0.037,0.079-0.074,0.22-0.108,0.419c-0.037,0.099-0.054,0.212-0.054,0.332
			c0,0.116-0.013,0.249-0.029,0.39c-0.017,0.22-0.025,0.469-0.025,0.747c0,0.282,0,0.581,0,0.901v3.002v0.482
			c0,0.32,0,0.622,0,0.901c0,0.278,0.008,0.54,0.025,0.781c0.017,0.581,0.1,1.03,0.245,1.349c0.162,0.361,0.399,0.61,0.706,0.751
			c0.27,0.141,0.685,0.212,1.246,0.212H174.135z"/>
		<path fill="#D4D4CD" d="M193.424,451.672h-11.367v-1.258h11.367V451.672z"/>
		<path fill="#D4D4CD" d="M214.856,450.414v1.258h-3.77h-3.745h-6.132h-7.486h-1.03v-1.258h1.329c0.506,0,0.876-0.071,1.113-0.212
			c0.287-0.158,0.494-0.407,0.623-0.747c0.125-0.324,0.207-0.781,0.245-1.383c0.017-0.278,0.025-0.594,0.025-0.947
			c0-0.349,0-0.743,0-1.183v-0.905c0-2.3,0.644-4.102,1.927-5.401c0.56-0.577,1.245-1.034,2.047-1.366
			c0.806-0.328,1.723-0.536,2.757-0.614h0.706h0.569h3.28h3.421h1.815v8.287c0,0.44,0,0.835,0,1.183
			c0,0.353,0.012,0.668,0.029,0.947c0.037,0.602,0.117,1.059,0.245,1.383c0.125,0.357,0.324,0.606,0.598,0.747
			c0.253,0.142,0.639,0.212,1.167,0.212H214.856z M207.395,450.414c0.56,0,0.976-0.071,1.249-0.212
			c0.307-0.141,0.54-0.39,0.702-0.747c0.128-0.324,0.207-0.781,0.245-1.383c0.021-0.278,0.029-0.594,0.029-0.947
			c0-0.349,0-0.743,0-1.183v-2.525c0-0.34,0-0.647,0-0.93c0-0.282-0.008-0.54-0.029-0.781v-0.058v-0.39
			c-0.017-0.12-0.029-0.241-0.042-0.361c-0.008-0.12-0.021-0.228-0.037-0.332c-0.021-0.079-0.033-0.158-0.041-0.236
			c-0.008-0.083-0.034-0.141-0.067-0.183c-0.145-0.32-0.374-0.548-0.681-0.689c-0.291-0.141-0.706-0.233-1.246-0.27
			c-0.253-0.021-0.544-0.029-0.872-0.029c-0.324,0-0.677,0-1.054,0h-1.304h-1.872c-0.253,0.037-0.452,0.079-0.598,0.116
			c-0.54,0.162-1.013,0.432-1.408,0.814c-0.436,0.357-0.781,0.86-1.034,1.499c-0.27,0.643-0.407,1.424-0.407,2.342v2.013
			c0,0.44,0.004,0.835,0.017,1.183c0.008,0.353,0.021,0.668,0.037,0.947c0.037,0.602,0.12,1.059,0.245,1.383
			c0.128,0.34,0.353,0.589,0.681,0.747c0.307,0.142,0.731,0.212,1.275,0.212H207.395z M202.429,434.832
			c-0.54,0-1.005-0.207-1.383-0.631c-0.378-0.42-0.569-0.93-0.569-1.528c0-0.623,0.191-1.142,0.569-1.561
			c0.378-0.423,0.843-0.631,1.383-0.631c0.544,0,1.005,0.207,1.383,0.631c0.398,0.419,0.598,0.938,0.598,1.561
			c0,0.598-0.199,1.108-0.598,1.528C203.434,434.624,202.973,434.832,202.429,434.832z M206.772,434.832
			c-0.544,0-1.005-0.207-1.387-0.631c-0.378-0.42-0.569-0.93-0.569-1.528c0-0.623,0.191-1.142,0.569-1.561
			c0.382-0.423,0.843-0.631,1.387-0.631c0.56,0,1.03,0.207,1.407,0.631c0.382,0.419,0.573,0.938,0.573,1.561
			c0,0.598-0.191,1.108-0.573,1.528C207.802,434.624,207.333,434.832,206.772,434.832z"/>
		<path fill="#D4D4CD" d="M225.542,451.672h-2.362v0.992c-0.071,0.901-0.224,1.723-0.461,2.462c-0.233,0.739-0.577,1.391-1.03,1.951
			c-1.03,1.32-2.587,1.981-4.667,1.981l-0.137-1.648c0.56,0,1.034-0.075,1.411-0.212c0.436-0.162,0.789-0.42,1.059-0.781
			c0.27-0.361,0.49-0.86,0.652-1.503c0.091-0.319,0.149-0.676,0.174-1.079c0.029-0.403,0.042-0.83,0.042-1.291v-1.86
			c0-0.021,0.008-0.029,0.029-0.029v-4.712v-2.525c0-0.44,0-0.838,0-1.2c0-0.361-0.012-0.681-0.029-0.959
			c-0.037-0.56-0.116-1.013-0.245-1.353c-0.125-0.341-0.332-0.59-0.623-0.747c-0.29-0.162-0.676-0.241-1.167-0.241h-0.245v-1.262
			h5.211v8.287c0,0.158,0,0.419,0,0.781c0,0.357,0,0.755,0,1.183c0,0.432,0.004,0.872,0.012,1.32
			c0.008,0.452,0.013,0.847,0.013,1.187h2.362V451.672z"/>
		<path fill="#D4D4CD" d="M235.797,451.672H224.43v-1.258h11.367V451.672z"/>
		<path fill="#D4D4CD" d="M242.66,450.202c0.307,0.142,0.743,0.212,1.303,0.212v1.258h-2.578h-2.603h-3.608v-1.258h3.608v-4.472
			v-7.926v-1.474c0-0.42-0.004-0.81-0.017-1.171c-0.008-0.357-0.021-0.677-0.037-0.959c-0.021-0.519-0.091-0.98-0.22-1.383
			c-0.145-0.341-0.353-0.59-0.623-0.747c-0.253-0.141-0.643-0.212-1.167-0.212h-0.245v-1.258h2.309h1.084h1.818v15.129
			c0,0.44,0.004,0.835,0.012,1.183c0.009,0.353,0.025,0.668,0.042,0.947c0.037,0.602,0.116,1.059,0.245,1.383
			C242.108,449.795,242.336,450.044,242.66,450.202z"/>
		<path fill="#D4D4CD" d="M252.043,450.202c0.27,0.142,0.706,0.212,1.304,0.212v1.258h-5.211v-5.73v-7.955v-1.445
			c0-0.44,0-0.835,0-1.184c0-0.353-0.008-0.664-0.029-0.946c-0.033-0.602-0.116-1.059-0.241-1.383
			c-0.129-0.357-0.328-0.606-0.598-0.747c-0.253-0.141-0.644-0.212-1.167-0.212h-0.27v-1.258h2.304h1.113h1.818v15.129
			c0,0.419,0,0.809,0,1.171c0,0.357,0.008,0.681,0.025,0.959c0.037,0.581,0.129,1.042,0.274,1.383
			C251.491,449.812,251.72,450.06,252.043,450.202z"/>
		<path fill="#D4D4CD" d="M293.578,450.414v1.258h-13.402h-7.486h-2.034c-0.22,0.041-0.399,0.083-0.544,0.124
			c-0.523,0.158-0.996,0.42-1.411,0.781c-0.399,0.357-0.739,0.855-1.03,1.499c-0.27,0.639-0.407,1.42-0.407,2.342v1.021
			c0.037,0.179,0.066,0.349,0.096,0.511c0.025,0.158,0.058,0.299,0.095,0.419c0.145,0.341,0.353,0.59,0.623,0.752
			c0.307,0.137,0.698,0.207,1.167,0.207h0.245v1.262h-2.171h-1.221h-1.764c0.02-0.282,0.029-0.56,0.029-0.839
			c0-0.282,0-0.643,0-1.083v-0.901c0-2.279,0.639-4.073,1.926-5.372c1.175-1.241,2.902-1.893,5.182-1.951l0.054-0.029h0.299h0.539
			h0.627c0.452,0,0.822-0.071,1.113-0.212c0.287-0.199,0.494-0.448,0.623-0.747c0.145-0.361,0.224-0.822,0.245-1.383
			c0-0.278,0.004-0.602,0.012-0.959c0.009-0.361,0.013-0.752,0.013-1.171v-0.905c0-2.279,0.635-4.081,1.901-5.401
			c1.175-1.2,2.782-1.86,4.829-1.98h0.706h0.569h6.701v1.079v0.423v2.549h-1.142v-0.299c0-0.581-0.063-1.013-0.191-1.291
			c-0.125-0.303-0.349-0.519-0.677-0.66c-0.324-0.162-0.743-0.249-1.246-0.27c-0.253-0.021-0.544-0.029-0.872-0.029
			c-0.324,0-0.676,0-1.054,0h-1.333h-1.843c-0.253,0.037-0.452,0.079-0.598,0.116c-0.523,0.162-0.992,0.423-1.408,0.781
			c-0.436,0.403-0.78,0.901-1.034,1.503c-0.27,0.639-0.407,1.42-0.407,2.342v2.043c0,0.419,0.004,0.809,0.017,1.171
			c0.008,0.357,0.021,0.681,0.037,0.959c0.021,0.56,0.099,1.021,0.245,1.383c0.129,0.299,0.353,0.548,0.681,0.747
			c0.341,0.142,0.768,0.212,1.275,0.212H293.578z"/>
		<path fill="#D4D4CD" d="M302.392,450.414v1.258h-2.495h-5.02h-1.951v-1.258h2.005c0.274,0,0.511-0.021,0.719-0.063
			c0.207-0.037,0.386-0.087,0.531-0.15c0.29-0.141,0.523-0.39,0.706-0.747c0.145-0.361,0.224-0.822,0.245-1.383
			c0.017-0.278,0.025-0.602,0.025-0.959c0-0.361,0-0.752,0-1.171v-2.525c0-0.44,0-0.838,0-1.2c0-0.361-0.008-0.681-0.025-0.959
			c-0.021-0.56-0.099-1.021-0.245-1.383c-0.145-0.34-0.345-0.581-0.598-0.718c-0.291-0.162-0.677-0.241-1.167-0.241h-0.27v-1.262
			h5.235v8.287c0,0.419,0,0.809,0,1.171c0,0.357,0.008,0.681,0.025,0.959c0.02,0.56,0.099,1.021,0.245,1.383
			c0.145,0.357,0.344,0.606,0.598,0.747c0.253,0.142,0.639,0.212,1.167,0.212H302.392z M295.475,454.677
			c0.523,0,0.997,0.207,1.412,0.627c0.378,0.461,0.569,0.984,0.569,1.561c0,0.602-0.191,1.113-0.569,1.532
			c-0.399,0.44-0.868,0.66-1.412,0.66c-0.544,0-1.005-0.22-1.382-0.66c-0.382-0.42-0.569-0.93-0.569-1.532
			c0-0.577,0.187-1.1,0.569-1.561C294.47,454.885,294.931,454.677,295.475,454.677z M299.407,454.677
			c0.544,0,1.005,0.207,1.386,0.627c0.395,0.44,0.594,0.963,0.594,1.561c0,0.602-0.199,1.113-0.594,1.532
			c-0.382,0.44-0.843,0.66-1.386,0.66c-0.54,0-1.001-0.22-1.383-0.66c-0.378-0.42-0.569-0.93-0.569-1.532
			c0-0.577,0.191-1.1,0.569-1.561C298.406,454.885,298.867,454.677,299.407,454.677z"/>
		<path fill="#D4D4CD" d="M310.206,452.664c-0.145,1.84-0.644,3.313-1.491,4.413c-0.527,0.66-1.183,1.154-1.968,1.486
			c-0.789,0.332-1.686,0.494-2.699,0.494l-0.137-1.648c0.561,0,1.03-0.075,1.412-0.212c0.432-0.162,0.784-0.42,1.059-0.781
			c0.27-0.361,0.486-0.86,0.647-1.503c0.145-0.676,0.22-1.47,0.22-2.371v-1.86v-0.029c0-0.22,0.004-0.557,0.012-1.009
			c0.009-0.449,0.012-0.914,0.012-1.395c0-0.482,0-0.934,0-1.366c0-0.428,0-0.743,0-0.943v-2.525c0-0.44-0.004-0.838-0.012-1.2
			c-0.008-0.361-0.012-0.681-0.012-0.959c-0.037-0.56-0.12-1.013-0.245-1.353c-0.129-0.341-0.336-0.59-0.623-0.747
			c-0.291-0.162-0.681-0.241-1.167-0.241h-0.245v-1.262h5.207v8.287c0,0.179,0,0.477,0,0.897c0,0.423,0,0.88,0,1.383
			c0,0.503,0.004,0.992,0.017,1.47c0.008,0.482,0.012,0.872,0.012,1.171V452.664z M307.573,433.723
			c-0.544,0-1.005-0.212-1.382-0.631c-0.382-0.419-0.569-0.942-0.569-1.561c0-0.602,0.187-1.108,0.569-1.532
			c0.398-0.44,0.859-0.66,1.382-0.66c0.523,0,0.984,0.22,1.383,0.66c0.399,0.423,0.598,0.93,0.598,1.532
			c0,0.619-0.199,1.142-0.598,1.561C308.578,433.512,308.118,433.723,307.573,433.723z"/>
		<path fill="#D4D4CD" d="M333.373,450.414v1.258H331.5v0.992c-0.071,0.901-0.224,1.723-0.461,2.462
			c-0.237,0.739-0.577,1.391-1.03,1.951c-1.034,1.32-2.561,1.981-4.588,1.981l-0.108-1.648c0.253,0.017,0.498,0.008,0.735-0.034
			c0.232-0.041,0.461-0.099,0.676-0.178c0.415-0.121,0.76-0.382,1.03-0.781c0.291-0.341,0.519-0.843,0.681-1.503
			c0.071-0.319,0.125-0.673,0.162-1.063c0.037-0.39,0.054-0.826,0.054-1.308v-0.872h-2.334h-6.132h-4.039h-3.446v-1.171l0.245-0.087
			c0.523,0,0.914-0.071,1.167-0.212c0.287-0.158,0.494-0.407,0.623-0.747c0.125-0.324,0.207-0.781,0.245-1.383
			c0-0.278,0.004-0.594,0.013-0.947c0.008-0.349,0.012-0.743,0.012-1.183v-0.905c0-2.279,0.635-4.081,1.902-5.401
			c1.137-1.179,2.74-1.831,4.799-1.951h0.029h0.706h0.569h3.284h3.417h1.818v6.996H331.5v5.734H333.373z M328.598,450.414v-4.472
			v-2.525c0-0.44,0-0.834,0-1.187c0-0.349-0.009-0.664-0.029-0.942c-0.033-0.262-0.062-0.503-0.079-0.723
			c-0.037-0.199-0.075-0.336-0.108-0.419c-0.145-0.32-0.374-0.548-0.681-0.689c-0.324-0.162-0.739-0.249-1.245-0.27
			c-0.253-0.021-0.544-0.029-0.868-0.029c-0.328,0-0.681,0-1.059,0h-1.329h-1.847c-0.253,0.037-0.453,0.079-0.594,0.116
			c-0.253,0.1-0.503,0.212-0.747,0.332c-0.245,0.12-0.465,0.282-0.664,0.481c-0.436,0.357-0.781,0.86-1.03,1.499
			c-0.274,0.643-0.407,1.424-0.407,2.342v2.013c0,0.44,0.004,0.835,0.012,1.183c0.009,0.353,0.021,0.668,0.042,0.947
			c0.033,0.602,0.116,1.059,0.241,1.383c0.129,0.34,0.353,0.589,0.681,0.747c0.27,0.142,0.693,0.212,1.275,0.212H328.598z"/>
		<path fill="#D4D4CD" d="M343.848,451.672H332.48v-1.258h11.368V451.672z"/>
		<path fill="#D4D4CD" d="M356.162,450.414v1.258h-2.466h-7.49h-3.878v-1.258h3.907c0.544,0,0.967-0.071,1.275-0.212
			c0.324-0.158,0.552-0.407,0.677-0.747c0.129-0.324,0.207-0.781,0.245-1.383c0.017-0.278,0.033-0.594,0.042-0.947
			c0.008-0.349,0.012-0.743,0.012-1.183v-2.525c0-0.44-0.004-0.838-0.012-1.2c-0.009-0.361-0.025-0.681-0.042-0.959
			c-0.037-0.56-0.116-1.013-0.245-1.353c-0.125-0.357-0.324-0.611-0.594-0.747c-0.29-0.162-0.681-0.241-1.167-0.241h-0.245v-1.262
			h5.206v8.287c0,0.44,0,0.835,0,1.183c0,0.353,0.012,0.668,0.029,0.947c0.037,0.602,0.117,1.059,0.245,1.383
			c0.125,0.34,0.332,0.589,0.623,0.747c0.236,0.142,0.606,0.212,1.113,0.212H356.162z M346.995,433.512
			c-0.544,0-1.005-0.22-1.383-0.66c-0.382-0.419-0.573-0.93-0.573-1.532c0-0.577,0.191-1.1,0.573-1.561
			c0.378-0.42,0.839-0.631,1.383-0.631s1.005,0.212,1.383,0.631c0.399,0.44,0.598,0.963,0.598,1.561
			c0,0.602-0.199,1.113-0.598,1.532C347.999,433.291,347.539,433.512,346.995,433.512z M351.309,433.512
			c-0.544,0-1.005-0.22-1.383-0.66c-0.382-0.419-0.573-0.93-0.573-1.532c0-0.577,0.191-1.1,0.573-1.561
			c0.378-0.42,0.838-0.631,1.383-0.631c0.523,0,0.992,0.212,1.411,0.631c0.378,0.461,0.569,0.984,0.569,1.561
			c0,0.602-0.191,1.113-0.569,1.532C352.322,433.291,351.848,433.512,351.309,433.512z"/>
		<path fill="#D4D4CD" d="M366.201,451.672h-11.367v-1.258h11.367V451.672z"/>
		<path fill="#D4D4CD" d="M375.015,450.414v1.258h-0.627h-5.182h-3.471v-1.258h3.471v-4.472v-7.926v-1.474
			c0-0.42-0.004-0.81-0.012-1.171c-0.008-0.357-0.025-0.677-0.042-0.959c-0.017-0.519-0.091-0.98-0.216-1.383
			c-0.145-0.341-0.353-0.59-0.622-0.747c-0.253-0.141-0.644-0.212-1.167-0.212h-0.245v-1.258h2.304h1.088h1.814v15.129
			c0,0.44,0.004,0.835,0.017,1.183c0.008,0.353,0.021,0.668,0.037,0.947c0,0.278,0.025,0.539,0.071,0.781
			c0.046,0.241,0.104,0.44,0.174,0.602c0.129,0.34,0.353,0.589,0.681,0.747c0.27,0.142,0.693,0.212,1.275,0.212H375.015z"/>
		<path fill="#D4D4CD" d="M382.094,450.202c0.307,0.142,0.743,0.212,1.303,0.212v1.258h-2.578h-2.603h-3.608v-1.258h3.608v-4.472
			v-7.926v-1.474c0-0.42-0.004-0.81-0.017-1.171c-0.008-0.357-0.021-0.677-0.037-0.959c-0.021-0.519-0.091-0.98-0.22-1.383
			c-0.145-0.341-0.353-0.59-0.623-0.747c-0.253-0.141-0.643-0.212-1.167-0.212h-0.245v-1.258h2.309h1.083h1.819v15.129
			c0,0.44,0.004,0.835,0.012,1.183c0.008,0.353,0.025,0.668,0.042,0.947c0.037,0.602,0.116,1.059,0.245,1.383
			C381.542,449.795,381.77,450.044,382.094,450.202z"/>
	</g>
</g>
</svg>
